<svg version="1.1" id="Layer_1" xmlns="http://www.w3.org/2000/svg" xmlns:xlink="http://www.w3.org/1999/xlink" x="0px" y="0px"
	 width="100%" viewBox="0 0 61 54" enable-background="new 0 0 61 54" xml:space="preserve">
<path fill="#ffffff00" opacity="1.000000" stroke="none" 
	d="
M1.000000,51.000000 
	C1.000000,42.645767 1.000000,34.291538 1.227641,25.133606 
	C4.063280,26.824921 7.260159,28.946703 9.135729,31.905935 
	C11.693088,35.940876 14.541049,35.620914 18.462948,34.070732 
	C21.230690,34.306564 23.597927,34.569618 26.361561,34.903637 
	C28.943413,35.265839 30.471142,34.802143 30.279669,32.070366 
	C30.506895,32.036388 30.959570,32.116138 31.030735,32.350761 
	C31.298639,32.877209 31.572147,33.040638 31.963366,33.420654 
	C32.671619,34.121609 33.338936,34.477577 34.377739,34.903572 
	C35.500908,34.926754 36.252586,34.879913 37.356499,34.902855 
	C40.855320,35.280647 39.840782,33.582199 39.492653,32.026031 
	C42.914848,32.256500 45.375530,37.380325 49.044380,33.359520 
	C49.292702,33.865738 49.552868,34.016525 50.025833,34.328278 
	C50.775337,34.691677 51.388645,34.761959 52.340607,34.901512 
	C53.135548,34.923725 53.591835,34.876663 54.434994,34.899689 
	C56.249004,34.665157 57.676140,34.360531 59.410004,34.138092 
	C60.477825,34.480183 61.238911,34.740089 62.000000,35.000000 
	C62.000000,36.714359 62.000000,38.428715 61.620888,40.571663 
	C60.126301,41.317013 59.010830,41.633766 57.499832,41.969841 
	C55.069298,41.715378 53.034290,41.441597 50.613628,41.097183 
	C48.804619,41.313118 47.381264,41.599686 45.639469,41.838486 
	C44.544388,41.583282 43.767742,41.375851 42.595757,41.098042 
	C41.133965,41.074368 40.067509,41.121075 38.748581,41.130386 
	C38.311573,41.364319 38.127048,41.635635 37.556358,41.946472 
	C35.079971,41.971802 32.989738,41.957611 30.602896,41.870583 
	C29.519733,41.833363 28.733181,41.868984 27.560425,41.936638 
	C25.448664,41.701611 23.723108,41.434547 21.584801,41.096680 
	C19.780495,41.073429 18.388939,41.120987 16.609032,41.097450 
	C14.442512,41.669353 12.664345,42.312351 10.618218,43.051353 
	C9.884222,43.727741 9.418184,44.308125 8.641604,45.026245 
	C5.887374,47.109318 3.443687,49.054657 1.000000,51.000000 
z"/>
<path fill="#ffffff00" opacity="1.000000" stroke="none" 
	d="
M1.000000,21.000000 
	C1.000000,19.285641 1.000000,17.571283 1.400599,15.391630 
	C2.868963,14.895699 3.936728,14.865062 5.378874,14.904842 
	C6.510939,14.928780 7.268622,14.882300 8.435919,14.906199 
	C10.229847,14.929054 11.614161,14.881533 13.249937,14.871826 
	C13.685785,14.639983 13.870173,14.370325 14.423958,14.205296 
	C16.529930,14.484597 18.266506,14.659269 20.370197,14.903260 
	C21.526651,14.332026 22.315990,13.691475 23.339727,12.977701 
	C23.870409,12.710678 24.033068,12.437357 24.377228,12.047550 
	C25.114044,12.041470 25.535736,12.072351 26.023846,12.331930 
	C26.272594,12.854879 26.536526,13.012458 26.939915,13.381088 
	C27.669800,14.096333 28.341825,14.463854 29.384926,14.901964 
	C30.506781,14.925809 31.257565,14.879066 32.375092,14.902377 
	C33.529118,14.333248 34.316395,13.694066 35.440132,13.164953 
	C37.517952,13.794803 39.259319,14.314581 41.372330,14.905516 
	C42.496181,14.929056 43.248379,14.881438 44.372124,14.905153 
	C45.495670,14.929043 46.247681,14.881598 47.371414,14.905457 
	C48.495453,14.928930 49.247768,14.881102 50.328358,14.900812 
	C51.474724,14.326788 52.292816,13.685223 53.386078,12.941825 
	C54.144371,12.240673 54.627491,11.641354 55.415718,10.888102 
	C55.849091,9.839694 55.977352,8.945220 56.483444,8.018693 
	C58.574177,7.324427 60.287090,6.662213 62.000000,6.000000 
	C62.000000,14.020901 62.000000,22.041801 61.760132,30.864531 
	C58.654621,28.575968 55.912708,25.357628 52.887493,22.432261 
	C50.035126,19.674044 46.747837,20.507595 45.681259,23.954407 
	C45.463810,23.960384 45.037678,23.873688 44.974331,23.647568 
	C44.729694,23.131588 44.468296,22.978556 44.066246,22.615177 
	C43.335499,21.900171 42.665302,21.532341 41.623245,21.093725 
	C40.498791,21.070181 39.746204,21.117420 38.622337,21.094143 
	C37.499252,21.071119 36.747437,21.118612 35.629498,21.095427 
	C33.823360,21.649448 32.383354,22.274149 30.588573,22.806656 
	C28.153955,22.198666 26.074110,21.682869 23.619543,21.096788 
	C21.838238,21.406521 20.431652,21.786535 18.626469,22.096279 
	C15.772024,22.349684 12.371631,19.177633 10.917887,23.613201 
	C7.479109,22.519373 4.239555,21.759686 1.000000,21.000000 
z"/>
<path fill="#8654F2" opacity="1.000000" stroke="none" 
	d="
M1.000000,21.399996 
	C4.239555,21.759686 7.479109,22.519373 10.913604,23.861607 
	C11.108543,24.444153 11.106868,24.942490 11.148884,25.271976 
	C12.128532,26.398842 13.066165,27.196218 14.070233,28.319494 
	C15.422414,30.100096 16.708158,31.554796 18.009109,33.281738 
	C18.037025,33.735306 18.049732,33.916634 18.062439,34.097961 
	C14.541049,35.620914 11.693088,35.940876 9.135729,31.905935 
	C7.260159,28.946703 4.063280,26.824921 1.227641,24.664951 
	C1.000000,23.933331 1.000000,22.866661 1.000000,21.399996 
z"/>
<path fill="#9846FE" opacity="1.000000" stroke="none" 
	d="
M1.000000,51.500000 
	C3.443687,49.054657 5.887374,47.109318 8.814823,45.318474 
	C11.865724,48.648651 14.432861,51.824326 17.000000,55.000000 
	C12.500000,55.000000 7.966490,54.665985 3.511331,55.112942 
	C0.339237,55.431179 1.048076,53.654381 1.000000,51.500000 
z"/>
<path fill="#2ADDBA" opacity="1.000000" stroke="none" 
	d="
M45.898705,23.948431 
	C46.747837,20.507595 50.035126,19.674044 52.887493,22.432261 
	C55.912708,25.357628 58.654621,28.575968 61.760132,31.333179 
	C62.000000,32.066669 62.000000,33.133339 62.000000,34.600006 
	C61.238911,34.740089 60.477825,34.480183 59.122208,33.965675 
	C57.017033,32.809677 55.506390,31.908281 53.685097,30.902519 
	C51.915676,29.207373 50.456902,27.616590 48.783875,25.797445 
	C47.679317,25.028864 46.789013,24.488647 45.898705,23.948431 
z"/>
<path fill="#8C4FF6" opacity="1.000000" stroke="none" 
	d="
M16.997383,41.168549 
	C18.388939,41.120987 19.780495,41.073429 21.668598,41.419518 
	C23.253176,42.968719 24.368912,44.099602 25.423910,45.284561 
	C28.296333,48.510818 31.143080,51.759937 34.000000,55.000000 
	C32.285835,55.000000 30.571672,55.000000 28.355034,54.665390 
	C25.386745,51.569088 22.864456,48.855053 20.477867,46.026516 
	C19.197285,44.508801 18.149963,42.794270 16.997383,41.168549 
z"/>
<path fill="#736DE7" opacity="1.000000" stroke="none" 
	d="
M30.899508,41.943420 
	C32.989738,41.957611 35.079971,41.971802 37.708977,42.150574 
	C38.498417,42.543545 38.749088,42.771935 39.158138,43.263542 
	C40.211243,44.350941 41.105965,45.175129 42.208469,46.193680 
	C42.938587,46.596737 43.460926,46.805428 44.309143,47.019016 
	C45.068745,47.027515 45.502460,47.031109 46.059563,47.279686 
	C46.431335,48.011780 46.679722,48.498886 46.771137,49.204136 
	C46.741570,50.283447 46.868977,51.144611 46.997082,52.379990 
	C46.998520,53.502804 46.999260,54.251400 47.000000,55.000000 
	C46.250000,55.000000 45.500000,55.000000 44.302422,54.664673 
	C39.536396,50.200706 35.217953,46.072067 30.899508,41.943420 
z"/>
<path fill="#8752F3" opacity="1.000000" stroke="none" 
	d="
M34.428463,55.000000 
	C31.143080,51.759937 28.296333,48.510818 25.423910,45.284561 
	C24.368912,44.099602 23.253176,42.968719 22.081348,41.490326 
	C23.723108,41.434547 25.448664,41.701611 27.735954,42.227150 
	C29.650063,43.940685 30.998251,45.399670 32.355713,46.849972 
	C34.900974,49.569302 37.451603,52.283604 40.000000,55.000000 
	C38.285641,55.000000 36.571285,55.000000 34.428463,55.000000 
z"/>
<path fill="#28E0B8" opacity="1.000000" stroke="none" 
	d="
M41.000683,14.834360 
	C39.259319,14.314581 37.517952,13.794803 35.232109,12.952261 
	C34.456413,12.088634 34.225201,11.547769 33.822975,10.724350 
	C31.443491,9.283013 29.235016,8.124230 26.904604,6.716654 
	C26.513138,5.984137 26.243608,5.500412 25.837688,4.823472 
	C25.497919,4.386654 25.266533,4.173448 25.003571,3.617990 
	C25.000004,2.496892 25.000002,1.748446 25.000000,1.000000 
	C26.388889,1.000000 27.777779,1.000000 29.617769,1.348661 
	C31.045355,2.465449 32.021839,3.233577 33.147858,4.247151 
	C33.864651,4.995342 34.431900,5.498086 35.072823,6.334723 
	C37.097889,9.390531 39.049286,12.112446 41.000683,14.834360 
z"/>
<path fill="#904CF9" opacity="1.000000" stroke="none" 
	d="
M16.609032,41.097450 
	C18.149963,42.794270 19.197285,44.508801 20.477867,46.026516 
	C22.864456,48.855053 25.386745,51.569088 27.926277,54.665390 
	C26.611111,55.000000 25.222221,55.000000 23.342892,54.665359 
	C18.863693,50.538925 14.874935,46.747135 10.886177,42.955349 
	C12.664345,42.312351 14.442512,41.669353 16.609032,41.097450 
z"/>
<path fill="#ffffff00" opacity="1.000000" stroke="none" 
	d="
M1.000000,12.000000 
	C1.000000,8.417958 1.000000,4.835916 1.000000,1.000000 
	C4.006354,1.000000 7.016613,1.000000 10.511999,1.326858 
	C10.961476,2.087257 10.925824,2.520800 10.576103,3.095779 
	C9.813518,4.468473 9.365000,5.699729 8.941763,6.939684 
	C8.967045,6.948383 8.923109,6.917860 8.702784,6.941409 
	C8.482457,6.964959 8.045213,6.889810 7.924643,6.640512 
	C7.498300,6.913104 7.192526,7.434995 6.665524,7.988050 
	C6.444296,8.019213 6.022776,8.167445 5.767277,8.129379 
	C5.321682,8.363048 5.131588,8.634782 4.640857,9.037252 
	C3.858848,10.094575 3.377475,11.021162 2.524612,12.116080 
	C1.768748,12.189608 1.384374,12.094804 1.000000,12.000000 
z"/>
<path fill="#9349FB" opacity="1.000000" stroke="none" 
	d="
M10.618219,43.051353 
	C14.874935,46.747135 18.863693,50.538925 22.926226,54.665359 
	C21.285643,55.000000 19.571283,55.000000 17.428463,55.000000 
	C14.432861,51.824326 11.865724,48.648651 9.125366,45.180740 
	C9.418184,44.308125 9.884222,43.727741 10.618219,43.051353 
z"/>
<path fill="#1AFA9D" opacity="1.000000" stroke="none" 
	d="
M62.000000,5.500038 
	C60.287090,6.662213 58.574177,7.324427 56.192024,7.844444 
	C53.681850,5.468165 51.840927,3.234083 50.000000,1.000000 
	C53.878807,1.000000 57.757610,1.000000 62.000000,1.000000 
	C62.000000,2.318027 62.000000,3.659051 62.000000,5.500038 
z"/>
<path fill="#44B3CA" opacity="1.000000" stroke="none" 
	d="
M10.890172,2.954342 
	C10.925824,2.520800 10.961476,2.087257 10.998564,1.326858 
	C12.714396,1.000000 14.428792,1.000000 16.595863,1.333512 
	C17.701822,2.444504 18.355104,3.221985 19.255650,4.202075 
	C20.319460,4.617415 21.136009,4.830144 21.963074,5.282647 
	C21.973589,5.522420 21.996191,6.001896 21.998493,6.253559 
	C22.005091,6.672950 22.009390,6.840678 22.158203,7.192877 
	C22.512470,7.612033 22.750076,7.813941 23.013765,8.235945 
	C23.010654,8.657396 23.009315,8.825975 23.128597,9.248173 
	C23.506506,10.001198 23.763792,10.500606 24.031891,11.271118 
	C24.049170,11.722986 24.055635,11.903749 24.062103,12.084514 
	C24.033068,12.437357 23.870409,12.710678 23.047966,12.803198 
	C18.644596,9.452724 14.767384,6.203534 10.890172,2.954342 
z"/>
<path fill="#ffffff00" opacity="1.000000" stroke="none" 
	d="
M62.000000,45.000000 
	C62.000000,48.246468 62.000000,51.492939 62.000000,55.000000 
	C59.330299,55.000000 56.656197,55.000000 53.466820,54.667854 
	C53.013447,53.896912 53.075356,53.458122 53.354729,52.962822 
	C53.856251,52.736401 53.997684,52.485962 54.246452,52.050674 
	C54.344307,51.592731 54.192200,51.239113 54.032696,50.681316 
	C54.025299,50.477139 54.080540,50.072269 54.430725,50.041000 
	C55.889301,49.356651 56.997692,48.703571 58.418530,47.909859 
	C59.171421,46.546474 59.611866,45.323723 60.332397,44.124245 
	C61.074989,44.431683 61.537495,44.715843 62.000000,45.000000 
z"/>
<path fill="#7C61ED" opacity="1.000000" stroke="none" 
	d="
M40.399994,55.000000 
	C37.451603,52.283604 34.900974,49.569302 32.355713,46.849972 
	C30.998251,45.399670 29.650063,43.940685 28.122158,42.195114 
	C28.733181,41.868984 29.519733,41.833363 30.602896,41.870583 
	C35.217953,46.072067 39.536396,50.200706 43.927422,54.664673 
	C42.933331,55.000000 41.866661,55.000000 40.399994,55.000000 
z"/>
<path fill="#1EF2A5" opacity="1.000000" stroke="none" 
	d="
M49.583336,1.000000 
	C51.840927,3.234083 53.681850,5.468165 55.814198,7.876497 
	C55.977352,8.945220 55.849091,9.839694 55.073502,10.810787 
	C51.284115,7.591604 48.142056,4.295802 45.000000,1.000000 
	C46.388889,1.000000 47.777779,1.000000 49.583336,1.000000 
z"/>
<path fill="#22EBAC" opacity="1.000000" stroke="none" 
	d="
M53.110909,13.043658 
	C52.292816,13.685223 51.474724,14.326788 50.246696,14.579176 
	C47.890957,12.460238 45.945152,10.730477 43.728962,8.839857 
	C42.305916,7.785817 41.153255,6.892637 39.928890,5.667665 
	C39.238125,3.890582 38.619061,2.445291 38.000000,1.000000 
	C38.750000,1.000000 39.500000,1.000000 40.699211,1.335163 
	C45.135918,5.461437 49.123413,9.252548 53.110909,13.043658 
z"/>
<path fill="#20EFA9" opacity="1.000000" stroke="none" 
	d="
M53.386078,12.941826 
	C49.123413,9.252548 45.135918,5.461437 41.074211,1.335163 
	C42.066669,1.000000 43.133339,1.000000 44.600006,1.000000 
	C48.142056,4.295802 51.284115,7.591604 54.768394,10.964720 
	C54.627491,11.641354 54.144371,12.240673 53.386078,12.941826 
z"/>
<path fill="#697AE2" opacity="1.000000" stroke="none" 
	d="
M53.137264,53.019329 
	C53.075356,53.458122 53.013447,53.896912 52.975769,54.667854 
	C51.933331,55.000000 50.866661,55.000000 49.339691,54.692001 
	C48.251720,53.591263 47.624050,52.798523 46.996384,52.005779 
	C46.868977,51.144611 46.741570,50.283447 47.097527,49.306854 
	C49.433010,50.467396 51.285137,51.743362 53.137264,53.019329 
z"/>
<path fill="#23E9AF" opacity="1.000000" stroke="none" 
	d="
M37.625000,1.000000 
	C38.619061,2.445291 39.238125,3.890582 39.595337,5.667966 
	C38.888775,6.000309 38.444057,6.000561 37.749809,6.000269 
	C37.500282,5.999726 37.001221,5.998629 36.929398,5.666900 
	C36.238388,3.890114 35.619194,2.445057 35.000000,1.000000 
	C35.750000,1.000000 36.500000,1.000000 37.625000,1.000000 
z"/>
<path fill="#25E6B2" opacity="1.000000" stroke="none" 
	d="
M34.666668,1.000000 
	C35.619194,2.445057 36.238388,3.890114 36.595711,5.667357 
	C35.888943,5.999972 35.444050,6.000401 34.999153,6.000831 
	C34.431900,5.498086 33.864651,4.995342 33.148346,3.871903 
	C32.999527,2.500806 32.999763,1.750403 33.000000,1.000000 
	C33.444447,1.000000 33.888889,1.000000 34.666668,1.000000 
z"/>
<path fill="#6D75E4" opacity="1.000000" stroke="none" 
	d="
M1.000000,12.375000 
	C1.384374,12.094804 1.768748,12.189608 2.788003,12.280819 
	C3.950087,13.129626 4.477290,13.982026 5.004493,14.834425 
	C3.936728,14.865062 2.868963,14.895699 1.400599,14.963167 
	C1.000000,14.250000 1.000000,13.500000 1.000000,12.375000 
z"/>
<path fill="#41B8C9" opacity="1.000000" stroke="none" 
	d="
M62.000000,44.599937 
	C61.537495,44.715843 61.074989,44.431683 60.171680,43.859661 
	C59.119038,43.031372 58.507195,42.490948 57.895355,41.950520 
	C59.010830,41.633766 60.126301,41.317013 61.620888,41.000130 
	C62.000000,42.066624 62.000000,43.133251 62.000000,44.599937 
z"/>
<path fill="#3BC1C5" opacity="1.000000" stroke="none" 
	d="
M19.008389,3.999466 
	C18.355104,3.221985 17.701822,2.444504 17.024269,1.333512 
	C17.750000,1.000000 18.500000,1.000000 19.624441,1.375056 
	C20.004959,2.500186 20.011034,3.250262 19.764929,4.000755 
	C19.344625,4.000605 19.176506,4.000035 19.008389,3.999466 
z"/>
<path fill="#26E3B5" opacity="1.000000" stroke="none" 
	d="
M32.625000,1.000000 
	C32.999763,1.750403 32.999527,2.500806 32.998806,3.626457 
	C32.021839,3.233577 31.045355,2.465449 30.034435,1.348661 
	C30.750000,1.000000 31.500000,1.000000 32.625000,1.000000 
z"/>
<path fill="#2ED6BD" opacity="1.000000" stroke="none" 
	d="
M24.625000,1.000000 
	C25.000002,1.748446 25.000004,2.496892 24.750000,3.627733 
	C24.330950,4.014976 24.161909,4.019824 23.744625,4.017819 
	C23.496384,4.010967 22.999603,4.003960 22.755219,3.999272 
	C22.510832,3.994585 22.022032,3.986740 22.013525,3.613679 
	C22.003345,2.493745 22.001673,1.746873 22.000000,1.000000 
	C22.750000,1.000000 23.500000,1.000000 24.625000,1.000000 
z"/>
<path fill="#35CAC1" opacity="1.000000" stroke="none" 
	d="
M21.666992,1.000000 
	C22.001673,1.746873 22.003345,2.493745 21.678967,3.617494 
	C20.907646,3.996360 20.462378,3.998348 20.017111,4.000337 
	C20.011034,3.250262 20.004959,2.500186 19.999441,1.375056 
	C20.444662,1.000000 20.889322,1.000000 21.666992,1.000000 
z"/>
<path fill="#7071E6" opacity="1.000000" stroke="none" 
	d="
M46.997082,52.379990 
	C47.624050,52.798523 48.251720,53.591263 48.939693,54.692001 
	C48.555553,55.000000 48.111111,55.000000 47.333332,55.000000 
	C46.999260,54.251400 46.998520,53.502804 46.997082,52.379990 
z"/>
<path fill="#46AECC" opacity="1.000000" stroke="none" 
	d="
M30.943344,22.898849 
	C32.383354,22.274149 33.823360,21.649448 35.711632,21.416023 
	C37.774979,23.202940 39.390064,24.598579 41.328369,26.071930 
	C43.434532,27.433208 45.217476,28.716776 47.249973,30.000378 
	C47.499527,30.000412 47.999054,30.000536 48.057117,30.324286 
	C48.403324,31.477436 48.691467,32.306835 48.979614,33.136234 
	C45.375530,37.380325 42.914848,32.256500 39.146523,32.009323 
	C37.974407,31.978376 37.513073,31.960911 37.024178,31.623873 
	C36.655579,30.540228 36.314545,29.776155 35.825062,28.768415 
	C35.107059,28.035614 34.537502,27.546478 33.810783,26.776684 
	C32.750191,25.296963 31.846767,24.097906 30.943344,22.898849 
z"/>
<path fill="#6B78E3" opacity="1.000000" stroke="none" 
	d="
M11.106868,24.942490 
	C11.106868,24.942490 11.108543,24.444153 11.112826,24.195747 
	C12.371631,19.177633 15.772024,22.349684 18.804951,22.357544 
	C20.916830,24.130901 22.451626,25.572721 24.015877,27.346413 
	C24.707628,28.440414 25.369923,29.202541 26.329725,30.107716 
	C27.768969,30.868620 28.910706,31.486479 30.052443,32.104340 
	C30.471142,34.802143 28.943413,35.265839 26.178596,34.637035 
	C21.756380,29.650335 17.363567,25.852989 11.106868,24.942490 
z"/>
<path fill="#529AD4" opacity="1.000000" stroke="none" 
	d="
M58.106083,48.050491 
	C56.997692,48.703571 55.889301,49.356651 54.136627,49.859890 
	C51.671909,48.800583 49.851463,47.891125 47.883156,46.795494 
	C47.521996,46.371819 47.280048,46.168388 46.875355,45.712879 
	C46.474304,44.635979 46.207344,43.845238 45.948544,42.762489 
	C45.957100,42.275749 45.957504,42.081005 45.957905,41.886257 
	C47.381264,41.599686 48.804619,41.313118 50.696281,41.419121 
	C53.478413,43.891289 55.792248,45.970890 58.106083,48.050491 
z"/>
<path fill="#7669E9" opacity="1.000000" stroke="none" 
	d="
M11.148884,25.271976 
	C17.363567,25.852989 21.756380,29.650335 25.782196,34.566074 
	C23.597927,34.569618 21.230690,34.306564 18.462948,34.070732 
	C18.049732,33.916634 18.037025,33.735306 17.991430,32.938980 
	C16.640295,30.880520 15.322046,29.437057 14.003798,27.993595 
	C13.066165,27.196218 12.128532,26.398842 11.148884,25.271976 
z"/>
<path fill="#5A8FD9" opacity="1.000000" stroke="none" 
	d="
M23.986423,27.014542 
	C22.451626,25.572721 20.916830,24.130901 19.203548,22.427816 
	C20.431652,21.786535 21.838238,21.406521 23.702621,21.418016 
	C26.438345,23.876816 28.716267,25.944105 30.995628,28.344992 
	C30.998835,29.123711 31.000603,29.568832 31.000858,30.364155 
	C30.986086,31.181616 30.972828,31.648878 30.959568,32.116138 
	C30.959570,32.116138 30.506895,32.036388 30.279669,32.070366 
	C28.910706,31.486479 27.768969,30.868620 26.260565,29.804153 
	C25.258074,28.576544 24.622248,27.795544 23.986423,27.014542 
z"/>
<path fill="#4BA7CF" opacity="1.000000" stroke="none" 
	d="
M58.418530,47.909859 
	C55.792248,45.970890 53.478413,43.891289 51.081932,41.489754 
	C53.034290,41.441597 55.069298,41.715378 57.499832,41.969841 
	C58.507195,42.490948 59.119038,43.031372 59.891594,43.836384 
	C59.611866,45.323723 59.171421,46.546474 58.418530,47.909859 
z"/>
<path fill="#36C9C2" opacity="1.000000" stroke="none" 
	d="
M49.044376,33.359520 
	C48.691467,32.306835 48.403324,31.477436 48.057575,30.073997 
	C48.000050,29.333284 48.000126,29.166605 48.200188,28.747850 
	C48.599491,27.672455 48.798809,26.849133 48.998131,26.025810 
	C50.456902,27.616590 51.915676,29.207373 53.686806,31.234097 
	C54.000294,32.112320 54.001427,32.554596 53.722878,33.056244 
	C52.961758,33.408024 52.480316,33.700439 51.647415,33.995293 
	C50.827183,34.010212 50.358410,34.022690 49.889641,34.035168 
	C49.552868,34.016525 49.292702,33.865738 49.044376,33.359520 
z"/>
<path fill="#6382DE" opacity="1.000000" stroke="none" 
	d="
M42.000687,45.999313 
	C41.105965,45.175129 40.211243,44.350941 39.158829,42.958115 
	C39.001114,41.982239 39.001087,41.575008 39.001057,41.167778 
	C40.067509,41.121075 41.133965,41.074368 42.597984,41.406906 
	C42.996948,42.197979 42.998348,42.609802 43.000870,43.393234 
	C43.000744,44.509514 42.999493,45.254192 42.748848,45.998459 
	C42.499462,45.998051 42.000687,45.999313 42.000687,45.999313 
z"/>
<path fill="#32D0BF" opacity="1.000000" stroke="none" 
	d="
M54.002560,32.996876 
	C54.001427,32.554596 54.000294,32.112320 53.997456,31.338463 
	C55.506390,31.908281 57.017033,32.809677 58.815475,33.883492 
	C57.676140,34.360531 56.249004,34.665157 54.511650,34.714333 
	C54.135139,33.971546 54.068848,33.484211 54.002560,32.996876 
z"/>
<path fill="#529AD4" opacity="1.000000" stroke="none" 
	d="
M37.051743,31.943443 
	C37.513073,31.960911 37.974407,31.978376 38.781868,32.012550 
	C39.840782,33.582199 40.855320,35.280647 37.292328,34.641434 
	C36.583130,33.867779 36.290344,33.425331 36.151936,32.789841 
	C36.530537,32.351345 36.779015,32.133560 37.051743,31.943443 
z"/>
<path fill="#5792D7" opacity="1.000000" stroke="none" 
	d="
M35.997555,32.982880 
	C36.290344,33.425331 36.583130,33.867779 36.940094,34.571651 
	C36.252586,34.879913 35.500908,34.926754 34.378662,34.594391 
	C34.015354,33.803009 34.022610,33.390839 34.357399,32.980228 
	C35.122471,32.982155 35.560013,32.982517 35.997555,32.982880 
z"/>
<path fill="#3BC1C5" opacity="1.000000" stroke="none" 
	d="
M53.722878,33.056244 
	C54.068848,33.484211 54.135139,33.971546 54.124775,34.644241 
	C53.591835,34.876663 53.135548,34.923725 52.339836,34.691669 
	C52.000404,34.412552 51.998878,33.992855 51.998878,33.992855 
	C52.480316,33.700439 52.961758,33.408024 53.722878,33.056244 
z"/>
<path fill="#5B8DD9" opacity="1.000000" stroke="none" 
	d="
M42.999748,43.021629 
	C42.998348,42.609802 42.996948,42.197979 42.993324,41.477287 
	C43.767742,41.375851 44.544388,41.583282 45.639469,41.838486 
	C45.957504,42.081005 45.957100,42.275749 45.582565,42.751869 
	C44.472202,43.029373 43.735977,43.025501 42.999748,43.021629 
z"/>
<path fill="#6087DC" opacity="1.000000" stroke="none" 
	d="
M34.029865,32.978664 
	C34.022610,33.390839 34.015354,33.803009 34.007179,34.524364 
	C33.338936,34.477577 32.671619,34.121609 32.010048,33.374660 
	C32.015793,32.983681 32.108540,32.891350 32.421207,32.922539 
	C33.154037,32.969845 33.574196,32.985966 34.001350,32.995922 
	C34.008339,32.989761 34.029865,32.978664 34.029865,32.978664 
z"/>
<path fill="#6087DC" opacity="1.000000" stroke="none" 
	d="
M31.030735,32.350761 
	C30.972828,31.648878 30.986086,31.181616 31.188320,30.511253 
	C31.614910,30.522268 31.822222,30.762535 32.007698,31.339779 
	C32.046955,32.064186 32.077747,32.477768 32.108540,32.891350 
	C32.108540,32.891350 32.015793,32.983681 31.969110,33.029675 
	C31.572147,33.040638 31.298639,32.877209 31.030735,32.350761 
z"/>
<path fill="#687CE1" opacity="1.000000" stroke="none" 
	d="
M38.748581,41.130386 
	C39.001087,41.575008 39.001114,41.982239 39.000450,42.694901 
	C38.749088,42.771935 38.498417,42.543545 38.095135,42.111053 
	C38.127048,41.635635 38.311573,41.364319 38.748581,41.130386 
z"/>
<path fill="#3FBBC7" opacity="1.000000" stroke="none" 
	d="
M51.647415,33.995293 
	C51.998878,33.992855 52.000404,34.412552 52.001179,34.622398 
	C51.388645,34.761959 50.775337,34.691677 50.025833,34.328278 
	C50.358410,34.022690 50.827183,34.010212 51.647415,33.995293 
z"/>
<path fill="#4AA8CF" opacity="1.000000" stroke="none" 
	d="
M10.576103,3.095779 
	C14.767384,6.203534 18.644596,9.452724 22.813568,12.876420 
	C22.315990,13.691475 21.526651,14.332026 20.282410,14.583298 
	C16.640688,11.096704 14.153749,6.947978 8.916482,6.930985 
	C9.365000,5.699729 9.813518,4.468473 10.576103,3.095779 
z"/>
<path fill="#4F9FD2" opacity="1.000000" stroke="none" 
	d="
M8.941763,6.939684 
	C14.153749,6.947978 16.640688,11.096704 19.915297,14.513979 
	C18.266506,14.659269 16.529930,14.484597 14.271098,14.000795 
	C13.498279,13.462268 13.247714,13.232872 12.786746,12.810631 
	C12.050725,12.411915 11.525107,12.206045 10.998133,11.752285 
	C10.996775,11.504395 10.990664,11.008649 10.994135,10.756290 
	C10.998590,10.335680 10.999574,10.167429 10.856066,9.811295 
	C10.501620,9.384601 10.264564,9.176692 10.000201,8.999843 
	C10.000000,9.000000 10.000319,8.999584 9.855773,8.811687 
	C9.501171,8.384982 9.263990,8.177124 8.981371,7.729569 
	C8.949742,7.278567 8.936425,7.098213 8.923109,6.917860 
	C8.923109,6.917860 8.967045,6.948383 8.941763,6.939684 
z"/>
<path fill="#5399D4" opacity="1.000000" stroke="none" 
	d="
M30.994190,28.011395 
	C28.716267,25.944105 26.438345,23.876816 24.077343,21.488298 
	C26.074110,21.682869 28.153955,22.198666 30.588573,22.806656 
	C31.846767,24.097906 32.750191,25.296963 33.558327,26.968933 
	C32.640091,27.631697 31.817141,27.821545 30.994190,28.011395 
z"/>
<path fill="#38C5C3" opacity="1.000000" stroke="none" 
	d="
M25.974079,5.016686 
	C26.243608,5.500412 26.513138,5.984137 27.105564,6.961327 
	C28.619177,8.636288 29.809893,9.817784 31.058077,11.325020 
	C31.413145,12.711281 31.710745,13.771802 32.008347,14.832323 
	C31.257565,14.879066 30.506781,14.925809 29.275181,14.624146 
	C28.156929,13.861614 27.519491,13.447490 26.882055,13.033366 
	C26.536526,13.012458 26.272594,12.854879 26.120943,12.049689 
	C25.434401,10.025848 24.717176,8.512947 23.999611,6.750530 
	C23.999266,6.501014 23.998013,6.001989 23.999006,6.001014 
	C24.000000,6.000038 24.000076,5.999905 24.248672,5.879945 
	C24.989536,5.512218 25.481808,5.264452 25.974079,5.016686 
z"/>
<path fill="#25E6B2" opacity="1.000000" stroke="none" 
	d="
M37.999340,6.000813 
	C38.444057,6.000561 38.888775,6.000309 39.667046,5.999757 
	C41.153255,6.892637 42.305916,7.785817 43.799763,9.167359 
	C45.093861,11.381865 46.046776,13.108008 46.999687,14.834154 
	C46.247681,14.881598 45.495670,14.929043 44.290127,14.582455 
	C41.890839,11.459220 39.945087,8.730017 37.999340,6.000813 
z"/>
<path fill="#3BC1C5" opacity="1.000000" stroke="none" 
	d="
M47.000420,30.000345 
	C45.217476,28.716776 43.434532,27.433208 41.259911,25.748749 
	C40.243359,23.953457 39.618488,22.559059 38.993614,21.164661 
	C39.746204,21.117420 40.498791,21.070181 41.732075,21.372047 
	C42.850777,22.134886 43.488785,22.548620 44.126793,22.962353 
	C44.468296,22.978556 44.729694,23.131588 45.032890,23.989664 
	C45.769875,26.038454 46.384949,27.519028 47.000042,29.249786 
	C47.000179,29.666765 47.000301,29.833555 47.000420,30.000345 
z"/>
<path fill="#26E3B5" opacity="1.000000" stroke="none" 
	d="
M37.749809,6.000270 
	C39.945087,8.730017 41.890839,11.459220 43.918587,14.511122 
	C43.248379,14.881438 42.496181,14.929056 41.372330,14.905518 
	C39.049286,12.112446 37.097889,9.390531 35.072823,6.334723 
	C35.444050,6.000401 35.888943,5.999972 36.667530,5.999086 
	C37.001221,5.998629 37.500282,5.999726 37.749809,6.000270 
z"/>
<path fill="#677EE0" opacity="1.000000" stroke="none" 
	d="
M5.378874,14.904842 
	C4.477290,13.982026 3.950087,13.129626 3.159493,12.112488 
	C3.377475,11.021162 3.858848,10.094575 4.855533,9.243656 
	C5.913208,9.548605 6.455572,9.777885 7.180114,10.153759 
	C7.593957,10.511612 7.796270,10.747993 7.819597,11.186599 
	C7.783694,11.909603 7.897426,12.455504 8.012766,13.307148 
	C8.018353,14.020534 8.022329,14.428177 8.026306,14.835821 
	C7.268622,14.882300 6.510939,14.928780 5.378874,14.904842 
z"/>
<path fill="#23E9AF" opacity="1.000000" stroke="none" 
	d="
M47.371414,14.905457 
	C46.046776,13.108008 45.093861,11.381865 44.070148,9.328218 
	C45.945152,10.730477 47.890957,12.460238 49.918423,14.511637 
	C49.247768,14.881102 48.495453,14.928930 47.371414,14.905457 
z"/>
<path fill="#41B8C9" opacity="1.000000" stroke="none" 
	d="
M38.622337,21.094143 
	C39.618488,22.559059 40.243359,23.953457 40.936691,25.671038 
	C39.390064,24.598579 37.774979,23.202940 36.077759,21.486702 
	C36.747437,21.118612 37.499252,21.071119 38.622337,21.094143 
z"/>
<path fill="#35CAC1" opacity="1.000000" stroke="none" 
	d="
M47.000023,28.999603 
	C46.384949,27.519028 45.769875,26.038454 45.096237,24.215782 
	C45.037678,23.873688 45.463810,23.960384 45.681259,23.954407 
	C46.789013,24.488647 47.679317,25.028864 48.783878,25.797445 
	C48.798809,26.849133 48.599491,27.672455 47.950089,28.747875 
	C47.500008,28.999977 47.000019,28.999603 47.000023,28.999603 
z"/>
<path fill="#5C8CDA" opacity="1.000000" stroke="none" 
	d="
M8.435919,14.906199 
	C8.022329,14.428177 8.018353,14.020534 8.324102,13.252108 
	C9.422384,12.594275 10.210938,12.297226 10.999490,12.000175 
	C11.525107,12.206045 12.050725,12.411915 12.786743,13.115681 
	C12.997589,14.020388 12.998034,14.427199 12.998477,14.834011 
	C11.614161,14.881533 10.229847,14.929054 8.435919,14.906199 
z"/>
<path fill="#34CDC1" opacity="1.000000" stroke="none" 
	d="
M32.375092,14.902378 
	C31.710745,13.771802 31.413145,12.711281 31.432301,11.325161 
	C32.497368,11.002010 33.245678,11.004457 33.993988,11.006905 
	C34.225201,11.547769 34.456413,12.088634 34.895649,12.842191 
	C34.316395,13.694066 33.529118,14.333248 32.375092,14.902378 
z"/>
<path fill="#3BC1C5" opacity="1.000000" stroke="none" 
	d="
M23.999954,7.000046 
	C24.717176,8.512947 25.434401,10.025848 26.054527,11.820991 
	C25.535736,12.072351 25.114044,12.041470 24.377228,12.047550 
	C24.055635,11.903749 24.049170,11.722986 24.167618,11.069891 
	C23.864347,10.063226 23.436161,9.528891 23.007975,8.994555 
	C23.009315,8.825975 23.010654,8.657396 23.198206,8.093355 
	C23.619461,7.490770 23.825216,7.257782 24.000843,6.999465 
	C24.000000,7.000000 23.999954,7.000046 23.999954,7.000046 
z"/>
<path fill="#3FBBC7" opacity="1.000000" stroke="none" 
	d="
M26.939915,13.381088 
	C27.519491,13.447490 28.156929,13.861614 28.904110,14.553557 
	C28.341825,14.463854 27.669800,14.096333 26.939915,13.381088 
z"/>
<path fill="#35CAC1" opacity="1.000000" stroke="none" 
	d="
M44.066246,22.615177 
	C43.488785,22.548620 42.850777,22.134886 42.103935,21.442833 
	C42.665302,21.532341 43.335499,21.900171 44.066246,22.615177 
z"/>
<path fill="#5792D7" opacity="1.000000" stroke="none" 
	d="
M13.249937,14.871826 
	C12.998034,14.427199 12.997589,14.020388 12.997147,13.308527 
	C13.247714,13.232872 13.498279,13.462268 13.901703,13.896165 
	C13.870173,14.370325 13.685785,14.639983 13.249937,14.871826 
z"/>
<path fill="#7964EB" opacity="1.000000" stroke="none" 
	d="
M14.070233,28.319494 
	C15.322046,29.437057 16.640295,30.880520 17.976223,32.666740 
	C16.708158,31.554796 15.422414,30.100096 14.070233,28.319494 
z"/>
<path fill="#6284DD" opacity="1.000000" stroke="none" 
	d="
M48.031021,46.981663 
	C49.851463,47.891125 51.671909,48.800583 53.786446,49.891159 
	C54.080540,50.072269 54.025299,50.477139 54.018692,50.998627 
	C54.006889,51.731739 54.001694,51.943367 53.996494,52.154999 
	C53.997684,52.485962 53.856251,52.736401 53.354729,52.962822 
	C51.285137,51.743362 49.433010,50.467396 47.254494,49.088711 
	C46.679722,48.498886 46.431335,48.011780 46.409286,47.268044 
	C47.100758,47.001495 47.565891,46.991581 48.031021,46.981663 
z"/>
<path fill="#6087DC" opacity="1.000000" stroke="none" 
	d="
M47.883156,46.795494 
	C47.565891,46.991581 47.100758,47.001495 46.285904,47.023060 
	C45.502460,47.031109 45.068745,47.027515 44.314194,46.765213 
	C43.994102,46.337379 43.994850,46.168251 44.372253,45.998478 
	C45.502422,45.998238 46.255936,45.998638 47.009449,45.999035 
	C47.280048,46.168388 47.521996,46.371819 47.883156,46.795494 
z"/>
<path fill="#697AE2" opacity="1.000000" stroke="none" 
	d="
M43.995594,45.999119 
	C43.994850,46.168251 43.994102,46.337379 43.988312,46.760315 
	C43.460926,46.805428 42.938587,46.596737 42.208469,46.193680 
	C42.000687,45.999313 42.499462,45.998051 42.998199,45.998840 
	C43.496941,45.999626 43.995594,45.999119 43.995594,45.999119 
z"/>
<path fill="#2ED6BD" opacity="1.000000" stroke="none" 
	d="
M33.822975,10.724350 
	C33.245678,11.004457 32.497368,11.002010 31.374834,10.999422 
	C29.809893,9.817784 28.619177,8.636288 27.227501,7.210119 
	C29.235016,8.124230 31.443491,9.283013 33.822975,10.724350 
z"/>
<path fill="#36C9C2" opacity="1.000000" stroke="none" 
	d="
M25.837688,4.823472 
	C25.481808,5.264452 24.989536,5.512218 24.247478,5.550570 
	C23.996082,4.902328 23.994476,4.463500 23.992868,4.024672 
	C24.161909,4.019824 24.330950,4.014976 24.753563,4.000385 
	C25.266533,4.173448 25.497919,4.386654 25.837688,4.823472 
z"/>
<path fill="#5792D7" opacity="1.000000" stroke="none" 
	d="
M7.969231,11.009497 
	C7.796270,10.747993 7.593957,10.511612 7.067379,9.918945 
	C6.522569,9.080841 6.272673,8.624143 6.022776,8.167445 
	C6.022776,8.167445 6.444296,8.019213 6.882072,7.837120 
	C7.561637,7.399955 7.803425,7.144883 8.045213,6.889810 
	C8.045213,6.889810 8.482457,6.964959 8.702784,6.941409 
	C8.936425,7.098213 8.949742,7.278567 9.126034,7.917360 
	C9.499134,8.614491 9.736238,8.822420 10.000319,8.999584 
	C10.000319,8.999584 10.000000,9.000000 10.144775,9.187651 
	C10.499537,9.614046 10.736540,9.822005 11.000558,9.999177 
	C10.999574,10.167429 10.998590,10.335680 10.616995,10.756169 
	C9.480666,11.008770 8.724949,11.009133 7.969231,11.009497 
z"/>
<path fill="#5C8CDA" opacity="1.000000" stroke="none" 
	d="
M5.767277,8.129379 
	C6.272673,8.624143 6.522569,9.080841 6.885201,9.772352 
	C6.455572,9.777885 5.913208,9.548605 5.156168,9.112921 
	C5.131588,8.634782 5.321682,8.363048 5.767277,8.129379 
z"/>
<path fill="#5399D4" opacity="1.000000" stroke="none" 
	d="
M7.924643,6.640512 
	C7.803425,7.144883 7.561637,7.399955 7.103301,7.805957 
	C7.192526,7.434995 7.498300,6.913104 7.924643,6.640512 
z"/>
<path fill="#36C9C2" opacity="1.000000" stroke="none" 
	d="
M19.764929,4.000755 
	C20.462378,3.998348 20.907646,3.996360 21.687473,3.990555 
	C22.022032,3.986740 22.510832,3.994585 22.602924,4.193215 
	C22.473146,4.638066 22.225658,4.855076 21.952557,5.042874 
	C21.136009,4.830144 20.319460,4.617415 19.255650,4.202075 
	C19.176506,4.000035 19.344625,4.000605 19.764929,4.000755 
z"/>
<path fill="#38C5C3" opacity="1.000000" stroke="none" 
	d="
M21.963074,5.282647 
	C22.225658,4.855076 22.473146,4.638066 22.847309,4.197903 
	C22.999603,4.003960 23.496384,4.010967 23.744625,4.017819 
	C23.994476,4.463500 23.996082,4.902328 23.998882,5.670530 
	C24.000076,5.999905 24.000000,6.000038 23.665962,6.000361 
	C22.886681,6.001089 22.441437,6.001493 21.996191,6.001896 
	C21.996191,6.001896 21.973589,5.522420 21.963074,5.282647 
z"/>
<path fill="#3FBBC7" opacity="1.000000" stroke="none" 
	d="
M23.128597,9.248173 
	C23.436161,9.528891 23.864347,10.063226 24.156807,10.798788 
	C23.763792,10.500606 23.506506,10.001198 23.128597,9.248173 
z"/>
<path fill="#3BC1C5" opacity="1.000000" stroke="none" 
	d="
M21.998493,6.253559 
	C22.441437,6.001493 22.886681,6.001089 23.664970,6.001337 
	C23.998013,6.001989 23.999266,6.501014 23.999611,6.750530 
	C23.999954,7.000046 24.000000,7.000000 23.669392,7.001208 
	C22.897085,7.004413 22.455385,7.006409 22.013687,7.008405 
	C22.009390,6.840678 22.005091,6.672950 21.998493,6.253559 
z"/>
<path fill="#36C9C2" opacity="1.000000" stroke="none" 
	d="
M22.158203,7.192877 
	C22.455385,7.006409 22.897085,7.004413 23.670235,7.000673 
	C23.825216,7.257782 23.619461,7.490770 23.199978,7.840483 
	C22.750076,7.813941 22.512470,7.612033 22.158203,7.192877 
z"/>
<path fill="#5B8DD9" opacity="1.000000" stroke="none" 
	d="
M54.246452,52.050674 
	C54.001694,51.943367 54.006889,51.731739 54.026093,51.202805 
	C54.192200,51.239113 54.344307,51.592731 54.246452,52.050674 
z"/>
<path fill="#5792D7" opacity="1.000000" stroke="none" 
	d="
M30.995628,28.344992 
	C31.817141,27.821545 32.640091,27.631697 33.715496,27.249596 
	C34.537502,27.546478 35.107059,28.035614 35.676201,29.026806 
	C35.116352,30.353292 34.556911,31.177721 33.744034,31.887440 
	C32.993477,31.524807 32.496353,31.276878 31.999233,31.028950 
	C31.822222,30.762535 31.614910,30.522268 31.189835,30.161053 
	C31.000603,29.568832 30.998835,29.123711 30.995628,28.344992 
z"/>
<path fill="#4F9FD2" opacity="1.000000" stroke="none" 
	d="
M33.997467,32.002148 
	C34.556911,31.177721 35.116352,30.353292 35.824654,29.270473 
	C36.314545,29.776155 36.655579,30.540228 37.024178,31.623873 
	C36.779015,32.133560 36.530537,32.351345 36.151936,32.789841 
	C35.560013,32.982517 35.122471,32.982155 34.357399,32.980228 
	C34.029865,32.978664 34.008339,32.989761 34.003502,32.745926 
	C33.998661,32.502090 33.997467,32.002148 33.997467,32.002148 
z"/>
<path fill="#41B8C9" opacity="1.000000" stroke="none" 
	d="
M47.000038,29.249788 
	C47.000019,28.999603 47.500008,28.999977 47.750107,28.999950 
	C48.000126,29.166605 48.000050,29.333284 47.999512,29.750248 
	C47.999054,30.000536 47.499527,30.000412 47.249973,30.000378 
	C47.000301,29.833555 47.000179,29.666765 47.000038,29.249788 
z"/>
<path fill="#6382DE" opacity="1.000000" stroke="none" 
	d="
M24.015877,27.346413 
	C24.622248,27.795544 25.258074,28.576544 25.963058,29.661108 
	C25.369923,29.202541 24.707628,28.440414 24.015877,27.346413 
z"/>
<path fill="#687CE1" opacity="1.000000" stroke="none" 
	d="
M44.372253,45.998478 
	C43.995594,45.999119 43.496941,45.999626 43.247589,45.999245 
	C42.999493,45.254192 43.000744,44.509514 43.000870,43.393234 
	C43.735977,43.025501 44.472202,43.029373 45.574409,43.043869 
	C46.207344,43.845238 46.474304,44.635979 46.875355,45.712879 
	C46.255936,45.998638 45.502422,45.998238 44.372253,45.998478 
z"/>
<path fill="#6284DD" opacity="1.000000" stroke="none" 
	d="
M33.744034,31.887440 
	C33.997467,32.002148 33.998661,32.502090 33.996510,32.752087 
	C33.574196,32.985966 33.154037,32.969845 32.421207,32.922539 
	C32.077747,32.477768 32.046955,32.064186 32.007698,31.339779 
	C32.496353,31.276878 32.993477,31.524807 33.744034,31.887440 
z"/>
<path fill="#6087DC" opacity="1.000000" stroke="none" 
	d="
M7.819597,11.186600 
	C8.724949,11.009133 9.480666,11.008770 10.613523,11.008528 
	C10.990664,11.008649 10.996775,11.504395 10.998133,11.752285 
	C10.210938,12.297226 9.422384,12.594275 8.322495,12.946365 
	C7.897426,12.455504 7.783694,11.909603 7.819597,11.186600 
z"/>
<path fill="#5399D4" opacity="1.000000" stroke="none" 
	d="
M10.856066,9.811295 
	C10.736540,9.822005 10.499537,9.614046 10.144976,9.187492 
	C10.264564,9.176692 10.501620,9.384601 10.856066,9.811295 
z"/>
<path fill="#5399D4" opacity="1.000000" stroke="none" 
	d="
M9.855773,8.811687 
	C9.736238,8.822420 9.499134,8.614491 9.144346,8.188009 
	C9.263990,8.177124 9.501171,8.384982 9.855773,8.811687 
z"/>
</svg>